<svg xmlns="http://www.w3.org/2000/svg" xmlns:xlink="http://www.w3.org/1999/xlink" width="217" height="65" viewBox="0 0 217 65"><defs><style>.a{fill:none;}.b,.e{fill:#fff;}.b{stroke:#e0e0e0;}.c{fill:#00bfff;}.d{clip-path:url(#a);}</style><clipPath id="a"><path class="a" d="M39.761,18.032c0-5.935,5.687-11.2,1.337-14.491C38.153,1.316,21.649,0,17.705,0A17.879,17.879,0,0,0,0,18.032,17.879,17.879,0,0,0,17.705,36.064c6.715,0,17.687-3.816,20.688-9.434C39.759,24.074,39.761,21.144,39.761,18.032Z"/></clipPath></defs><g transform="translate(0.5 0.911)"><rect class="b" width="216" height="64" rx="4" transform="translate(0 -0.411)"/><g transform="translate(15.206 13.97)"><g transform="translate(0)"><g transform="translate(0)"><path class="c" d="M34.463,25.86A18.1,18.1,0,1,1,18.086,0a18,18,0,0,1,13,5.535h10.49a.991.991,0,0,1,.874,1.454l-3.584,6.8a7.846,7.846,0,0,1-2.743,2.974q.051.685.052,1.384a18.2,18.2,0,0,1-.7,5.032H36.89a1.338,1.338,0,0,1,0,2.677Z"/><g transform="translate(0.479 0.109)"><path class="a" d="M39.761,18.032c0-5.935,5.687-11.2,1.337-14.491C38.153,1.316,21.649,0,17.705,0A17.879,17.879,0,0,0,0,18.032,17.879,17.879,0,0,0,17.705,36.064c6.715,0,17.687-3.816,20.688-9.434C39.759,24.074,39.761,21.144,39.761,18.032Z"/><g class="d"><path class="e" d="M11.452,26.257H9.994a.483.483,0,0,1-.479-.487v-.01a.485.485,0,0,1,.479-.488h1.458a.484.484,0,0,1,.477.488v.01A.482.482,0,0,1,11.452,26.257Zm13.835-1.282H13.854a.483.483,0,0,1-.477-.488v-.01a.482.482,0,0,1,.477-.487H25.287a.483.483,0,0,1,.478.487v.01A.483.483,0,0,1,25.287,24.975ZM12.622,22.419H3.735L0,22.416V20.45H12.622A5.935,5.935,0,0,0,17.958,17.1l.74-1.5H9.641a.966.966,0,0,1-.955-.975v-.019a.966.966,0,0,1,.955-.975H21.309a5.934,5.934,0,0,0,5.336-3.351l.74-1.5H13.018a.966.966,0,0,1-.955-.975v-.02a.966.966,0,0,1,.955-.975H30a5.935,5.935,0,0,0,5.336-3.351l.74-1.5H0V0H37.763a.89.89,0,0,1,.758.432.912.912,0,0,1,.037.884l-1.5,3.036A7.852,7.852,0,0,1,30,8.786h-.451L28.369,11.17a7.851,7.851,0,0,1-7.06,4.432h-.45l-1.173,2.373h7.37a.484.484,0,0,1,.479.488v.01a.483.483,0,0,1-.479.487H19.112A7.865,7.865,0,0,1,12.622,22.419Zm10.9-1.468H20.13a.483.483,0,0,1-.478-.488v-.009a.483.483,0,0,1,.478-.488h3.389a.483.483,0,0,1,.478.488v.009A.483.483,0,0,1,23.519,20.951Zm12.387-3.414H24.474A.483.483,0,0,1,24,17.05v-.009a.483.483,0,0,1,.478-.488H35.906a.484.484,0,0,1,.479.488v.009A.484.484,0,0,1,35.906,17.538Z" transform="translate(0 7.302)"/></g></g></g></g><path d="M-75.653-2.875h-5.676a4.347,4.347,0,0,1-2.035-.434,2.845,2.845,0,0,1-1.253-1.28,4.607,4.607,0,0,1-.423-2.075V-8.645h2.028v1.973a1.828,1.828,0,0,0,.4,1.323,1.777,1.777,0,0,0,1.3.407l5.668.008q1.613,0,1.62-.736.008-.305-.791-1.206l-2.505-2.865a1.875,1.875,0,0,1-.454-1.284,1.781,1.781,0,0,1,.141-.681,1.448,1.448,0,0,1,.387-.525,1.78,1.78,0,0,1,.607-.337l4.916-1.62.407-.133v2.106l-.211.07-4.008,1.307,4.173,4.744a6.771,6.771,0,0,0,.654.658,2.829,2.829,0,0,0,.524.376.952.952,0,0,0,.364.117h.188a.406.406,0,0,1,.16.035.431.431,0,0,1,.137.09.545.545,0,0,1,.149.251,1.27,1.27,0,0,1,.055.266q.008.11.008.337v.141q0,.125,0,.2t-.016.2a.811.811,0,0,1-.043.211.935.935,0,0,1-.086.168.346.346,0,0,1-.145.129.5.5,0,0,1-.215.043h-.117a3.483,3.483,0,0,1-2.685-1.307Q-73.234-2.883-75.653-2.875ZM-69.625-.7l.564-.564a.568.568,0,0,1,.9-.047l.6.611a.573.573,0,0,1-.023.916l-.556.556a.557.557,0,0,1-.9.008l-.611-.6A.546.546,0,0,1-69.625-.7Zm2.732-.008.556-.556a.562.562,0,0,1,.9-.047l.6.611a.573.573,0,0,1-.023.916l-.556.556a.557.557,0,0,1-.9.008l-.611-.6A.551.551,0,0,1-66.893-.707ZM-63-2.875h-.164a3.932,3.932,0,0,1-.955-.11,3.079,3.079,0,0,1-.822-.329,2.744,2.744,0,0,1-.658-.548,3.78,3.78,0,0,1-2.771.986h-1.339q-.744,0-.744-1v-.086q0-.979.744-.979h1.378a1.96,1.96,0,0,0,1.276-.329A1.264,1.264,0,0,0-66.674-6.3v-2.27h2.067V-6.3a1.359,1.359,0,0,0,.337,1.033,1.537,1.537,0,0,0,1.1.321H-63q.509,0,.509.979v.086Q-62.517-2.875-63-2.875Zm1.323,5.081a.539.539,0,0,1-.031-.861L-61.1.734a.553.553,0,0,1,.885.008l.556.556a.563.563,0,0,1,.023.9l-.611.611q-.415.415-.877-.047Zm1.354-2.349A.539.539,0,0,1-60.356-1l.611-.611a.559.559,0,0,1,.885.008l.556.556a.569.569,0,0,1,.023.9l-.611.611a.55.55,0,0,1-.877-.047Zm-2.724,0A.539.539,0,0,1-63.08-1l.611-.611a.559.559,0,0,1,.885.008l.556.556a.569.569,0,0,1,.023.9l-.611.611a.55.55,0,0,1-.877-.047Zm-.031-2.732q-.744,0-.744-1v-.086q0-.979.744-.979h1.667a1.936,1.936,0,0,0,.462-.047,1.146,1.146,0,0,0,.352-.157.8.8,0,0,0,.243-.266,1.3,1.3,0,0,0,.149-.4,2.539,2.539,0,0,0,.047-.548V-8.911h2.02V-6.4a3.834,3.834,0,0,1-.806,2.615,2.976,2.976,0,0,1-2.349.908Zm12.987,0h-.892A3.453,3.453,0,0,1-52.273-.237a5.187,5.187,0,0,1-3.245.885h-1.143V-1.411h1.1a5.081,5.081,0,0,0,1.46-.176,1.7,1.7,0,0,0,.838-.493,1.35,1.35,0,0,0,.294-.795H-54.14a2.647,2.647,0,0,1-2.1-.818,3.439,3.439,0,0,1-.72-2.345,3.292,3.292,0,0,1,.787-2.349,3,3,0,0,1,2.258-.822,2.779,2.779,0,0,1,2.176.834,3.481,3.481,0,0,1,.759,2.392v1.041h.885a.44.44,0,0,1,.114.016.427.427,0,0,1,.106.043.279.279,0,0,1,.078.067.574.574,0,0,1,.153.251,1,1,0,0,1,.055.266q0,.11,0,.337v.344q0,.07-.012.2a.66.66,0,0,1-.047.207,1.682,1.682,0,0,1-.086.164.317.317,0,0,1-.145.129A.521.521,0,0,1-50.093-2.875ZM-53.945-7.2a1.058,1.058,0,0,0-.806.262,1.312,1.312,0,0,0-.243.9,1.39,1.39,0,0,0,.2.861.79.79,0,0,0,.646.243h1.19l-.008-.994a2.666,2.666,0,0,0-.059-.607.912.912,0,0,0-.184-.391.705.705,0,0,0-.3-.207A1.307,1.307,0,0,0-53.945-7.2Zm3.781,4.329q-.744,0-.744-1v-.086q0-.979.744-.979h.8a1.15,1.15,0,0,0,.908-.321,1.635,1.635,0,0,0,.282-1.08v-7.241h1.965v7.3a3.606,3.606,0,0,1-.806,2.529,3.058,3.058,0,0,1-2.356.877Zm6-10.709h1.644v10.7H-44.48v-10.7ZM-24.8-2.875h-.3a4.179,4.179,0,0,1-.818-.074,2.354,2.354,0,0,1-.661-.231,4.217,4.217,0,0,1-.673,2.129A3.51,3.51,0,0,1-28.886.233a6.788,6.788,0,0,1-2.536.423h-.431q-3.358,0-4.454-2.223a5.411,5.411,0,0,1-.5-2.427v-3h2.043V-4a2.492,2.492,0,0,0,.7,1.953,3.274,3.274,0,0,0,2.223.63h.4A3.741,3.741,0,0,0-29.2-1.947a1.908,1.908,0,0,0,.7-1.624V-8.551h2.035v2.082a2.135,2.135,0,0,0,.153.881.99.99,0,0,0,.466.489,1.845,1.845,0,0,0,.822.157h.227a.406.406,0,0,1,.16.035.431.431,0,0,1,.137.09.545.545,0,0,1,.149.251A1.27,1.27,0,0,1-24.3-4.3q.008.11.008.337v.27q0,.067,0,.133t-.012.137a.9.9,0,0,1-.027.141,1.248,1.248,0,0,1-.043.129.458.458,0,0,1-.063.11.49.49,0,0,1-.09.09.355.355,0,0,1-.117.059A.542.542,0,0,1-24.8-2.875Zm-8.05-5.648.6-.595a.628.628,0,0,1,1-.05l.645.645A.636.636,0,0,1-30.63-7.5l-.595.6a.62.62,0,0,1-1,0l-.653-.645A.613.613,0,0,1-32.85-8.523Zm14.227-5.171.556-.556q.462-.462.877-.047l.611.611a.563.563,0,0,1-.023.9l-.556.556a.553.553,0,0,1-.885.008l-.611-.611A.539.539,0,0,1-18.623-13.694Zm1.354,2.349.556-.556a.55.55,0,0,1,.877-.047l.611.611a.569.569,0,0,1-.023.9l-.556.556a.559.559,0,0,1-.885.008l-.611-.611A.539.539,0,0,1-17.269-11.345Zm-2.724,0,.556-.556a.55.55,0,0,1,.877-.047l.611.611a.569.569,0,0,1-.023.9l-.556.556a.559.559,0,0,1-.885.008l-.611-.611A.539.539,0,0,1-19.993-11.345Zm7.625,5.12a1.62,1.62,0,0,0,.141.736.868.868,0,0,0,.446.415,1.986,1.986,0,0,0,.8.133h.219a.419.419,0,0,1,.157.031.474.474,0,0,1,.141.094.545.545,0,0,1,.149.251,1.842,1.842,0,0,0,.055.266,3.022,3.022,0,0,1,.008.337v.086a1.734,1.734,0,0,1-.1.728.683.683,0,0,1-.117.157.411.411,0,0,1-.29.117h-.157a3.159,3.159,0,0,1-2.356-.971,2.343,2.343,0,0,1-2.09.971,2.345,2.345,0,0,1-1.981-.939,2.574,2.574,0,0,1-2.145.939A2.459,2.459,0,0,1-21.6-3.846a3.184,3.184,0,0,1-2.536.971h-.736q-.744,0-.744-1v-.086q0-.979.744-.979h.744a1.666,1.666,0,0,0,1.119-.3,1.238,1.238,0,0,0,.337-.967V-8.574h2.1v.313l.008,2.067a2.464,2.464,0,0,0,.063.579.875.875,0,0,0,.2.391.732.732,0,0,0,.329.211,1.445,1.445,0,0,0,.485.07.992.992,0,0,0,.791-.282,1.515,1.515,0,0,0,.251-.986V-8.574h2.1v.313l.008,2.067a1.558,1.558,0,0,0,.235.971.914.914,0,0,0,.744.282,1.036,1.036,0,0,0,.509-.11.685.685,0,0,0,.3-.391,2.673,2.673,0,0,0,.1-.759V-8.574h2.075v.313Zm1.6,5.527.564-.564a.568.568,0,0,1,.9-.047l.6.611A.573.573,0,0,1-8.72.217l-.556.556a.557.557,0,0,1-.9.008l-.611-.6A.546.546,0,0,1-10.763-.7Zm2.732-.008.556-.556a.562.562,0,0,1,.9-.047l.6.611A.573.573,0,0,1-6,.217l-.556.556a.557.557,0,0,1-.9.008l-.611-.6A.551.551,0,0,1-8.031-.707Zm3.891-2.168H-4.3a3.933,3.933,0,0,1-.955-.11,3.079,3.079,0,0,1-.822-.329,2.744,2.744,0,0,1-.658-.548,3.78,3.78,0,0,1-2.771.986h-1.339q-.744,0-.744-1v-.086q0-.979.744-.979h1.378A1.96,1.96,0,0,0-8.2-5.271,1.264,1.264,0,0,0-7.812-6.3v-2.27h2.067V-6.3a1.359,1.359,0,0,0,.337,1.033,1.537,1.537,0,0,0,1.1.321h.172q.509,0,.509.979v.086Q-3.655-2.875-4.141-2.875Zm6.615-3.21a5.283,5.283,0,0,0,.908.853,1.455,1.455,0,0,0,.634.29h.2a.428.428,0,0,1,.29.133.545.545,0,0,1,.149.251,1.151,1.151,0,0,1,.055.266q.008.125.008.329v.313q0,.063-.008.172a.75.75,0,0,1-.031.18,1,1,0,0,1-.055.164.593.593,0,0,1-.086.141.593.593,0,0,1-.141.086.591.591,0,0,1-.188.031H4.087A3.5,3.5,0,0,1,1.4-4.182Q.6-2.875-1.823-2.875h-2.4q-.744,0-.744-1v-.086q0-.979.744-.979h2.411q1.6,0,1.628-.72.008-.3-.791-1.213L-3.483-9.741a1.845,1.845,0,0,1-.446-1.284,1.566,1.566,0,0,1,.3-.963,1.667,1.667,0,0,1,.838-.579l4.908-1.613.407-.141v2.106l-.211.07L-1.7-10.836ZM4.212-.7l.564-.564a.568.568,0,0,1,.9-.047l.6.611a.573.573,0,0,1-.023.916L5.7.773a.557.557,0,0,1-.9.008l-.611-.6A.546.546,0,0,1,4.212-.7ZM6.944-.707,7.5-1.262a.562.562,0,0,1,.9-.047L9-.7A.573.573,0,0,1,8.98.217L8.424.773a.557.557,0,0,1-.9.008l-.611-.6A.551.551,0,0,1,6.944-.707Zm3.891-2.168h-.164a3.933,3.933,0,0,1-.955-.11,3.079,3.079,0,0,1-.822-.329,2.744,2.744,0,0,1-.658-.548,3.78,3.78,0,0,1-2.771.986H4.126q-.744,0-.744-1v-.086q0-.979.744-.979H5.5A1.96,1.96,0,0,0,6.78-5.271,1.264,1.264,0,0,0,7.164-6.3v-2.27H9.23V-6.3a1.359,1.359,0,0,0,.337,1.033,1.537,1.537,0,0,0,1.1.321h.172q.509,0,.509.979v.086Q11.32-2.875,10.835-2.875Zm5.48,0h-.36a3.108,3.108,0,0,1-2.239-.939,2.948,2.948,0,0,1-2.215.939h-.744q-.744,0-.744-1v-.086q0-.979.744-.979h.728a1.141,1.141,0,0,0,.955-.388,2.124,2.124,0,0,0,.305-1.3v-6.959H14.7v6.967a2.047,2.047,0,0,0,.321,1.292,1.244,1.244,0,0,0,1.01.384h.282a.4.4,0,0,1,.11.016.361.361,0,0,1,.1.047.231.231,0,0,1,.078.063.605.605,0,0,1,.157.251,1.8,1.8,0,0,1,.055.266,3.334,3.334,0,0,1,.008.337v.086a1.62,1.62,0,0,1-.125.8A.443.443,0,0,1,16.315-2.875ZM17.63,2.206a.539.539,0,0,1-.031-.861l.611-.611a.553.553,0,0,1,.885.008l.556.556a.563.563,0,0,1,.023.9l-.611.611q-.415.415-.877-.047ZM18.984-.143A.539.539,0,0,1,18.953-1l.611-.611a.559.559,0,0,1,.885.008L21-1.051a.569.569,0,0,1,.023.9L20.417.46A.55.55,0,0,1,19.54.413Zm-2.724,0A.539.539,0,0,1,16.229-1l.611-.611a.559.559,0,0,1,.885.008l.556.556a.569.569,0,0,1,.023.9L17.693.46a.55.55,0,0,1-.877-.047Zm-.031-2.732q-.744,0-.744-1v-.086q0-.979.744-.979H17.9a1.936,1.936,0,0,0,.462-.047,1.146,1.146,0,0,0,.352-.157.8.8,0,0,0,.243-.266,1.3,1.3,0,0,0,.149-.4,2.539,2.539,0,0,0,.047-.548V-8.911h2.02V-6.4a3.834,3.834,0,0,1-.806,2.615,2.976,2.976,0,0,1-2.349.908Zm6.912-10.709h1.644v10.7H22.828v-10.7ZM34.226-4.942h6.545a1.648,1.648,0,0,0,1.241-.407A1.877,1.877,0,0,0,42.4-6.672V-8.621h2.02V-6.7a3.926,3.926,0,0,1-.947,2.842,3.662,3.662,0,0,1-2.756.979H34.2a5.107,5.107,0,0,1-1.315-.157,3.23,3.23,0,0,1-1.033-.47,2.919,2.919,0,0,1-.752-.767,3.351,3.351,0,0,1-.458-1.057,5.454,5.454,0,0,1-.153-1.339V-8.645H32.52v1.973a1.83,1.83,0,0,0,.4,1.319A1.766,1.766,0,0,0,34.226-4.942ZM36.418-.722l.564-.556a.587.587,0,0,1,.932-.047l.6.6a.594.594,0,0,1-.023.955L37.937.8a.579.579,0,0,1-.932,0l-.611-.6A.573.573,0,0,1,36.418-.722ZM51.363-3.188A3.526,3.526,0,0,1,50.2-.319a5.106,5.106,0,0,1-3.374.967H45.679V-1.411h1.1a5.081,5.081,0,0,0,1.46-.176,1.7,1.7,0,0,0,.838-.493,1.35,1.35,0,0,0,.294-.795H48.2a2.647,2.647,0,0,1-2.1-.818,3.439,3.439,0,0,1-.72-2.345,3.292,3.292,0,0,1,.787-2.349,3,3,0,0,1,2.258-.822,4.1,4.1,0,0,1,.6.043,3.03,3.03,0,0,1,.54.129,2.942,2.942,0,0,1,.47.207,2.092,2.092,0,0,1,.4.286,2.468,2.468,0,0,1,.329.368,2.55,2.55,0,0,1,.258.442,3.3,3.3,0,0,1,.184.513,4.274,4.274,0,0,1,.114.583,5.206,5.206,0,0,1,.039.654ZM48.4-7.2a1.869,1.869,0,0,0-.337.027,1.1,1.1,0,0,0-.266.082.6.6,0,0,0-.2.149.825.825,0,0,0-.137.223,1.3,1.3,0,0,0-.082.294,2.361,2.361,0,0,0-.027.384,1.373,1.373,0,0,0,.2.853.79.79,0,0,0,.646.243h1.19l-.008-.986a2.146,2.146,0,0,0-.11-.759.746.746,0,0,0-.317-.4A1.068,1.068,0,0,0,48.4-7.2Z" transform="translate(134.091 25.845)"/></g></g></svg>