<svg xmlns="http://www.w3.org/2000/svg" width="120" height="120" viewBox="0 0 120 120"><defs><style>.a,.c{fill:#fff;}.a{opacity:0;}.b{fill:#00bfff;}.d{fill:#0044fe;}.e{fill:none;stroke:#fff;stroke-linecap:round;stroke-linejoin:round;stroke-width:2.5px;}</style></defs><g transform="translate(2832 12825)"><rect class="a" width="120" height="120" transform="translate(-2832 -12825)"/><g transform="translate(-2875.674 -12868.906)"><g transform="translate(43.674 53.906)"><g transform="translate(0 0)"><g transform="translate(1.38 1.338)"><path class="b" d="M82.781,95.592H50.054a1.36,1.36,0,0,1-1.38-1.338V62.54a1.36,1.36,0,0,1,1.38-1.338H82.781a1.36,1.36,0,0,1,1.38,1.338V94.255A1.36,1.36,0,0,1,82.781,95.592Z" transform="translate(-48.674 -61.202)"/></g><g transform="translate(13.125 28.192)"><g transform="translate(0 8.894)"><g transform="translate(0 0)"><path class="b" d="M159.67,277.312s14.513-14.51,11.3-33.734a3.411,3.411,0,0,0-3.4-2.792H124.644a6.479,6.479,0,0,0-6.578,6.375v30.152h41.6Z" transform="translate(-110.652 -228.485)"/><g transform="translate(76.796 37.608)"><ellipse class="b" cx="12.366" cy="11.984" rx="12.366" ry="11.984"/><ellipse class="c" cx="7.127" cy="6.906" rx="7.127" ry="6.906" transform="translate(5.24 5.078)"/><path class="b" d="M400.153,359.822a2.659,2.659,0,0,1-3.482-1.244l-3.708-7.787,4.765-2.131,3.708,7.787a2.511,2.511,0,0,1-1.283,3.374Z" transform="translate(-386.451 -345.106)"/></g><g transform="translate(10.558 37.608)"><ellipse class="b" cx="12.366" cy="11.984" rx="12.366" ry="11.984"/><ellipse class="c" cx="7.127" cy="6.906" rx="7.127" ry="6.906" transform="translate(5.24 5.078)"/></g><path class="b" d="M157.587,302.84c-1.825-15.346-13.9-27.2-28.533-27.2s-26.708,11.856-28.533,27.2Z" transform="translate(-97.951 -254.013)"/><path class="c" d="M372.853,247.765l-3.479,24.511H383.89a113.384,113.384,0,0,0-.919-13.719,6.974,6.974,0,0,0-2.508-4.528Z" transform="translate(-292.577 -233.597)"/><path class="b" d="M390.987,334.374a1.343,1.343,0,0,0,1.273-1.86,16.61,16.61,0,0,0-15.029-10.293c-7.284,0-13.472,5.08-15.733,12.153Z" transform="translate(-286.876 -288.132)"/><path class="b" d="M177.67,194.812a12.986,12.986,0,0,0-13.049,11.318c-.972,8.482-1.957,18.616-1.957,18.616a18.451,18.451,0,0,1-18.593,16.218h-50a2.792,2.792,0,0,0-2.849,2.5,2.713,2.713,0,0,0,2.755,2.854h57c12.427,0,22.78-9.031,24.084-21.008Z" transform="translate(-91.212 -194.812)"/><g transform="translate(9.578 5.041)"><path class="b" d="M168.513,220.913H128.665a2.719,2.719,0,0,1-2.761-2.676,4.658,4.658,0,0,1,4.73-4.583h39.848a2.719,2.719,0,0,1,2.761,2.676A4.658,4.658,0,0,1,168.513,220.913Z" transform="translate(-125.904 -213.654)"/></g></g></g><g transform="translate(70.116)"><path class="b" d="M361.613,175.026l-7.691-2.675c-1.844-1.858-7.229-1.153-8.2-4.208s3.116-6.571,6.949-6.571h8.941a2.719,2.719,0,0,1,2.761,2.676v8.1A2.719,2.719,0,0,1,361.613,175.026Z" transform="translate(-345.578 -161.571)"/><path class="c" d="M398.607,161.57h-1.774v13.455h1.774a2.719,2.719,0,0,0,2.761-2.676v-8.1A2.719,2.719,0,0,0,398.607,161.57Z" transform="translate(-382.572 -161.57)"/></g><g transform="translate(20.185 39.905)"><path class="c" d="M177.956,313.572H165.8a1.429,1.429,0,1,1,0-2.856h12.158a1.429,1.429,0,1,1,0,2.856Z" transform="translate(-164.325 -310.716)"/><path class="c" d="M177.956,329.68H165.8a1.429,1.429,0,1,1,0-2.856h12.158a1.429,1.429,0,1,1,0,2.856Z" transform="translate(-164.325 -322.514)"/><path class="c" d="M177.956,345.787H165.8a1.429,1.429,0,1,1,0-2.856h12.158a1.429,1.429,0,1,1,0,2.856Z" transform="translate(-164.325 -334.312)"/></g></g><path class="d" d="M163.452,137.144a18.278,18.278,0,0,0-14.14-10.961c-.152-2.571-.4-5.289-.749-8.094a8.277,8.277,0,0,0-2.985-5.389l-2.428-2,1-11.688a4.038,4.038,0,0,0,2.941-3.84v-8.1a4.083,4.083,0,0,0-4.141-4.013h-5.215l.351-7.061a1.337,1.337,0,0,0-.875-1.31l-8.054-3.062.758-2.335a1.331,1.331,0,0,0-.9-1.678,1.39,1.39,0,0,0-1.731.875l-2.268,6.982a1.331,1.331,0,0,0,.9,1.678,1.421,1.421,0,0,0,.415.062,1.378,1.378,0,0,0,1.317-.936l.679-2.089,6.955,2.644-.309,6.231h-.963a8.206,8.206,0,0,0-8.323,8.065,7.835,7.835,0,0,0,1.472,4.574c0,.031,0,.062,0,.093a4.664,4.664,0,0,0,2.945,4.293,13.608,13.608,0,0,0-1.264,4.377c-.962,8.4-1.949,18.537-1.957,18.623a16.8,16.8,0,0,1-10.136,13.562C112.9,123,101.191,113.574,87.9,113.574a28.851,28.851,0,0,0-18.879,7.174,31.208,31.208,0,0,0-3.429,3.5V111.962a5.125,5.125,0,0,1,5.2-5.037h42.924a2.032,2.032,0,0,1,2.036,1.668,33.947,33.947,0,0,1-1.043,15.367,1.333,1.333,0,0,0,.945,1.656,1.387,1.387,0,0,0,1.708-.916,36.524,36.524,0,0,0,1.115-16.535,4.739,4.739,0,0,0-4.4-3.9A5.759,5.759,0,0,0,115.1,101a4.083,4.083,0,0,0-4.141-4.013H80.672a1.338,1.338,0,1,0,0,2.676h30.282a1.361,1.361,0,0,1,1.38,1.338,3.3,3.3,0,0,1-3.349,3.246H73.976V93.267h5.185a2.722,2.722,0,0,0,2.761-2.676V58.877A2.722,2.722,0,0,0,79.161,56.2H46.435a2.722,2.722,0,0,0-2.761,2.676V90.592a2.722,2.722,0,0,0,2.761,2.676h6.99v9.645a4.083,4.083,0,0,0,4.141,4.013h7.206a7.592,7.592,0,0,0-1.8,3.589H62.8a5.634,5.634,0,1,0,0,11.262h.034v6.254c0,.012,0,.024,0,.036a33.876,33.876,0,0,0-4.177,10.151,4.079,4.079,0,0,0-3.232,3.632,3.961,3.961,0,0,0,1.111,3.009,4.22,4.22,0,0,0,3.022,1.269h6.835a13.854,13.854,0,0,0,26.656,0H116.56a26.052,26.052,0,0,0,15.781-5.26h.037a12.913,12.913,0,0,0-.164,2.012,13.753,13.753,0,0,0,27.493,0,12.88,12.88,0,0,0-.165-2.012h1.367a2.782,2.782,0,0,0,2.306-1.2A2.592,2.592,0,0,0,163.452,137.144ZM70.791,104.25H69.137a1.361,1.361,0,0,1-1.38-1.338,3.3,3.3,0,0,1,3.349-3.246h.109v4.584ZM46.435,58.877H79.161l0,31.715H46.435Zm9.75,44.035V93.267h15.03V96.99h-.109A6.025,6.025,0,0,0,65,102.912a3.879,3.879,0,0,0,.242,1.338H57.566A1.361,1.361,0,0,1,56.185,102.912ZM62.8,119.1a2.957,2.957,0,1,1,0-5.911h.034V119.1Zm80.992-4.362a5.632,5.632,0,0,1,2.031,3.667c.326,2.647.567,5.213.717,7.645a16.966,16.966,0,0,0-5.07.978,24.453,24.453,0,0,0,.548-3.106c0-.01,0-.02,0-.029l.849-9.913Zm-9.781-29.008h.83l-.1,1.934a1.354,1.354,0,0,0,1.313,1.4l.067,0a1.362,1.362,0,0,0,1.378-1.274l.1-2.063h5.348a1.361,1.361,0,0,1,1.38,1.338v8.1a1.361,1.361,0,0,1-1.38,1.338H136.7a4.523,4.523,0,0,0,.064-.723,4.737,4.737,0,0,0-4.8-4.656,4.866,4.866,0,0,0-3.34,1.316,5.244,5.244,0,0,1-.172-1.327,5.485,5.485,0,0,1,5.562-5.389Zm-2.05,8.076a1.981,1.981,0,1,1-2.044,1.98A2.015,2.015,0,0,1,131.958,93.807ZM70.865,122.741A25.7,25.7,0,0,1,87.9,116.25c12.1,0,22.767,8.71,26.228,21.283a17.935,17.935,0,0,1-4.471.567H61.52A30.378,30.378,0,0,1,70.865,122.741Zm8.858,30.784a10.922,10.922,0,0,1-10.463-7.4H90.185A10.922,10.922,0,0,1,79.723,153.526ZM59.559,143.452a1.388,1.388,0,0,1-1.007-.423,1.306,1.306,0,0,1-.37-1.007,1.437,1.437,0,0,1,1.472-1.246h50a19.816,19.816,0,0,0,19.967-17.43c.01-.1,1-10.22,1.954-18.594a11.03,11.03,0,0,1,1.512-4.445,4.842,4.842,0,0,0,2.141-1.122h6.133l-2.1,24.471a22.538,22.538,0,0,1-22.709,19.8Zm97.387-.573a10.991,10.991,0,0,1-21.972,0,10.363,10.363,0,0,1,.2-2.012h21.567a10.351,10.351,0,0,1,.2,2.012Zm-21.6-4.688a24.609,24.609,0,0,0,5.01-7.724,14,14,0,0,1,6.792-1.754,15.311,15.311,0,0,1,13.756,9.478Z" transform="translate(-43.674 -56.201)"/><path class="e" d="M1,2.995l.826-.826A3.989,3.989,0,0,1,4.647,1H25.6s0,2.659-1.33,3.989-4.654,1.33-4.654,1.33m0,0a10.28,10.28,0,0,1-1.995,3.989c-1.33,1.33-3.989,1.33-3.989,1.33m5.984-5.319H10.308m3.324,5.319H6.984m6.649,0s0,1.33-1.995,3.324a6.177,6.177,0,0,1-3.989,1.995H3.659" transform="translate(5.823 9.556)"/></g><ellipse class="c" cx="3.023" cy="2.929" rx="3.023" ry="2.929" transform="translate(25.899 53.76)"/></g></g></g></svg>