<svg xmlns="http://www.w3.org/2000/svg" width="120" height="120" viewBox="0 0 120 120"><defs><style>.a,.d{fill:#fff;}.a{opacity:0;}.b{fill:#6c6cff;}.c{fill:#00bfff;}.e{fill:none;stroke:#fff;stroke-linecap:round;stroke-linejoin:round;stroke-width:2.5px;}.f{fill:#0044fe;}</style></defs><g transform="translate(3260 12609)"><rect class="a" width="120" height="120" transform="translate(-3260 -12609)"/><g transform="translate(-3294.826 -12681.363)"><g transform="translate(36.19 82.72)"><g transform="translate(0 0)"><g transform="translate(6.791 8.695)"><g transform="translate(0 10.088)"><ellipse class="b" cx="1.442" cy="1.436" rx="1.442" ry="1.436"/></g><g transform="translate(0 5.044)"><ellipse class="b" cx="1.442" cy="1.436" rx="1.442" ry="1.436"/></g><ellipse class="b" cx="1.442" cy="1.436" rx="1.442" ry="1.436"/></g><g transform="translate(43.909 68.516)"><path class="c" d="M230.924,338.74v24.135H200.84V338.74h9.839v9.95a5.2,5.2,0,0,0,10.406,0v-9.95Z" transform="translate(-200.84 -338.74)"/></g><path class="d" d="M39.826,89.078v65.791a2.721,2.721,0,0,0,2.727,2.715H154.372a2.721,2.721,0,0,0,2.727-2.715V89.078a2.721,2.721,0,0,0-2.727-2.715H42.553A2.721,2.721,0,0,0,39.826,89.078Z" transform="translate(-39.826 -86.363)"/><g transform="translate(0 60.968)"><path class="c" d="M39.826,310.939v7.537a2.721,2.721,0,0,0,2.727,2.715H154.372a2.721,2.721,0,0,0,2.727-2.715v-7.537Z" transform="translate(-39.826 -310.939)"/></g><g transform="translate(36.516 92.65)"><path class="c" d="M217.238,434.275H175.1a1.361,1.361,0,0,1-1.364-1.357V429a1.361,1.361,0,0,1,1.364-1.357h42.143A1.361,1.361,0,0,1,218.6,429v3.92A1.361,1.361,0,0,1,217.238,434.275Z" transform="translate(-173.732 -427.64)"/></g><g transform="translate(16.334 8.588)"><g transform="translate(-0.001 0.001)"><g transform="translate(0)"><path class="c" d="M315.55,119.382v23.494a1.385,1.385,0,0,0,1.388,1.382h23.6a1.385,1.385,0,0,0,1.388-1.382V119.382A1.385,1.385,0,0,0,340.538,118h-23.6a1.385,1.385,0,0,0-1.388,1.382Z" transform="translate(-315.55 -118)"/></g><g transform="translate(60.689 0.912)"><path class="c" d="M12.272,0A12.217,12.217,0,1,0,24.543,12.217,12.244,12.244,0,0,0,12.272,0Z"/><g transform="translate(7.741 6.13)"><path class="d" d="M128.112,148.45a4.53,4.53,0,1,1,7.764,3.153,4.484,4.484,0,0,1,1.3,3.153,1.364,1.364,0,0,1-2.727,0,1.8,1.8,0,0,0-3.607,0,1.364,1.364,0,0,1-2.727,0,4.483,4.483,0,0,1,1.3-3.153A4.483,4.483,0,0,1,128.112,148.45Zm4.53-1.8a1.8,1.8,0,1,0,1.8,1.8A1.8,1.8,0,0,0,132.642,146.655Z" transform="translate(-128.112 -143.94)"/></g></g><path class="e" d="M1,2.539,1.637,1.9A3.078,3.078,0,0,1,3.814,1H19.979a5.065,5.065,0,0,1-1.026,3.078C17.927,5.1,15.362,5.1,15.362,5.1m0,0a7.931,7.931,0,0,1-1.539,3.078,5.065,5.065,0,0,1-3.078,1.026m4.616-4.1H8.181m2.565,4.1H5.616m5.129,0s0,1.026-1.539,2.565A4.766,4.766,0,0,1,6.129,13.31H3.052" transform="translate(2.699 5.973)"/></g><g transform="translate(33.338 9.966)"><g transform="translate(0.001 0)"><g transform="translate(0)"><path class="f" d="M215.589,157.2l-3.43-2.348a.818.818,0,0,0-1.282.671v4.7a.818.818,0,0,0,1.282.671l3.43-2.348A.812.812,0,0,0,215.589,157.2Z" transform="translate(-210.877 -154.707)"/></g></g><g transform="translate(8.259 0)"><path class="f" d="M245.872,157.2l-3.43-2.348a.818.818,0,0,0-1.282.671v4.7a.818.818,0,0,0,1.282.671l3.43-2.348A.813.813,0,0,0,245.872,157.2Z" transform="translate(-241.16 -154.707)"/></g><g transform="translate(16.518 0)"><path class="f" d="M276.154,157.2l-3.43-2.348a.818.818,0,0,0-1.282.671v4.7a.818.818,0,0,0,1.282.671l3.43-2.348A.812.812,0,0,0,276.154,157.2Z" transform="translate(-271.442 -154.707)"/></g></g></g><g transform="translate(75.189 40.712)"><g transform="translate(0 6.557)"><path class="f" d="M320.258,262.974l-3.43-2.348a.818.818,0,0,0-1.282.671v4.7a.818.818,0,0,0,1.282.671l3.43-2.348A.812.812,0,0,0,320.258,262.974Z" transform="translate(-315.546 -260.481)"/></g><g transform="translate(7.167)"><g transform="translate(0 6.089)"><path class="c" d="M361.669,260.091a1.338,1.338,0,0,1-1.341,1.335H343.169a1.335,1.335,0,1,1,0-2.67h17.159A1.338,1.338,0,0,1,361.669,260.091Z" transform="translate(-341.828 -258.756)"/></g><path class="f" d="M350.761,237.662A1.338,1.338,0,0,1,349.42,239h-6.251a1.335,1.335,0,1,1,0-2.67h6.251A1.338,1.338,0,0,1,350.761,237.662Z" transform="translate(-341.828 -236.327)"/><g transform="translate(0 11.092)"><path class="c" d="M361.669,278.521a1.338,1.338,0,0,1-1.341,1.335H343.169a1.335,1.335,0,1,1,0-2.67h17.159A1.338,1.338,0,0,1,361.669,278.521Z" transform="translate(-341.828 -277.186)"/></g></g></g><g transform="translate(16.335 40.712)"><g transform="translate(0 6.557)"><path class="f" d="M104.437,262.974l-3.43-2.348a.818.818,0,0,0-1.282.671v4.7a.818.818,0,0,0,1.282.671l3.43-2.348A.812.812,0,0,0,104.437,262.974Z" transform="translate(-99.725 -260.481)"/></g><g transform="translate(7.205)"><g transform="translate(0 6.089)"><path class="c" d="M156.9,260.091a1.338,1.338,0,0,1-1.341,1.335H127.488a1.335,1.335,0,1,1,0-2.67h28.067a1.338,1.338,0,0,1,1.341,1.335Z" transform="translate(-126.147 -258.756)"/></g><path class="f" d="M140.534,237.662A1.338,1.338,0,0,1,139.193,239h-11.7a1.335,1.335,0,1,1,0-2.67h11.7A1.338,1.338,0,0,1,140.534,237.662Z" transform="translate(-126.147 -236.327)"/><g transform="translate(0 11.092)"><path class="c" d="M151.442,278.521a1.338,1.338,0,0,1-1.341,1.335H127.488a1.335,1.335,0,1,1,0-2.67H150.1A1.338,1.338,0,0,1,151.442,278.521Z" transform="translate(-126.147 -277.186)"/></g></g></g></g></g><g transform="translate(34.826 81.363)"><g transform="translate(0)"><path class="f" d="M150.735,81.363H64.108a1.357,1.357,0,1,0,0,2.715h86.628a1.362,1.362,0,0,1,1.364,1.357v65.791a1.362,1.362,0,0,1-1.364,1.357H38.917a1.362,1.362,0,0,1-1.364-1.357V85.435a1.362,1.362,0,0,1,1.364-1.357H56.092a1.357,1.357,0,1,0,0-2.715H38.917a4.086,4.086,0,0,0-4.091,4.072v65.791a4.086,4.086,0,0,0,4.091,4.072h39.82v18.715H74.069a2.724,2.724,0,0,0-2.727,2.715v3.92a2.724,2.724,0,0,0,2.727,2.715h42.143a2.724,2.724,0,0,0,2.727-2.715v-3.92a2.724,2.724,0,0,0-2.727-2.715h-4.667V161.971a1.364,1.364,0,0,0-2.727,0v12.043H81.463V155.3h7.109v5.888a6.568,6.568,0,0,0,13.136,0V155.3h49.027a4.086,4.086,0,0,0,4.091-4.072V85.435A4.086,4.086,0,0,0,150.735,81.363Zm-34.522,99.285H74.069v-3.92h42.143ZM98.982,161.186a3.841,3.841,0,0,1-7.682,0V155.3h7.682Z" transform="translate(-34.826 -81.363)"/></g></g></g></g></svg>