<svg xmlns="http://www.w3.org/2000/svg" width="120" height="120" viewBox="0 0 120 120"><defs><style>.a,.c{fill:#fff;}.a{opacity:0;}.b{fill:#00bfff;}.d{fill:#0044fe;}</style></defs><g transform="translate(3042 12831)"><rect class="a" width="120" height="120" transform="translate(-3042 -12831)"/><g transform="translate(-3068 -12905.144)"><path class="b" d="M248.866,372.4H225.38l3.076-12.1,1.623-6.387h14.09l1.623,6.387Z" transform="translate(-147.368 -201.554)"/><path class="c" d="M193.983,200.424H122.721a3.9,3.9,0,0,1-3.914-3.888V145.855a3.9,3.9,0,0,1,3.914-3.888h71.262a3.9,3.9,0,0,1,3.914,3.888v50.681A3.9,3.9,0,0,1,193.983,200.424Z" transform="translate(-68.596 -44.528)"/><path class="b" d="M215.331,199.709H157.679a.78.78,0,0,1-.783-.777V180.2h59.217v18.733A.78.78,0,0,1,215.331,199.709Z" transform="translate(-96.749 -72.853)"/><path class="b" d="M209.222,271.48H181.434a1.3,1.3,0,1,1,0-2.591h27.788a1.3,1.3,0,1,1,0,2.591Z" transform="translate(-113.922 -138.562)"/><path class="b" d="M209.222,291.48H181.434a1.3,1.3,0,1,1,0-2.591h27.788a1.3,1.3,0,1,1,0,2.591Z" transform="translate(-113.922 -153.379)"/><path class="d" d="M328.744,291.48h-4.31a1.3,1.3,0,1,1,0-2.591h4.31a1.3,1.3,0,1,1,0,2.591Z" transform="translate(-219.618 -153.379)"/><path class="b" d="M197.9,151.874v-6.019a3.9,3.9,0,0,0-3.914-3.888H122.721a3.9,3.9,0,0,0-3.914,3.888v6.019Z" transform="translate(-68.596 -44.528)"/><path class="b" d="M118.807,327.571v6.475a3.9,3.9,0,0,0,3.914,3.888h71.262a3.9,3.9,0,0,0,3.914-3.888v-6.475Z" transform="translate(-68.596 -182.038)"/><path class="b" d="M408.894,307.432H389.585a2.6,2.6,0,0,1-2.609-2.592V268.813a2.6,2.6,0,0,1,2.609-2.592h19.309a2.6,2.6,0,0,1,2.609,2.592V304.84A2.6,2.6,0,0,1,408.894,307.432Z" transform="translate(-266.808 -136.585)"/><path class="c" d="M386.976,363.282v14.306a2.684,2.684,0,0,0,2.609,2.753h19.309a2.684,2.684,0,0,0,2.609-2.753V363.282Z" transform="translate(-266.809 -209.493)"/><path class="b" d="M421.458,269.905l1.208-3.684H410.315l1.208,3.684a1.3,1.3,0,0,0,1.24.895h7.454A1.3,1.3,0,0,0,421.458,269.905Z" transform="translate(-284.059 -136.585)"/><path class="c" d="M68.575,285.2H33.609A2.6,2.6,0,0,1,31,282.608v-43.8a2.6,2.6,0,0,1,2.609-2.592H68.575a2.6,2.6,0,0,1,2.609,2.592v43.8A2.6,2.6,0,0,1,68.575,285.2Z" transform="translate(-3.696 -114.353)"/><path class="b" d="M71.184,244.68v-5.875a2.6,2.6,0,0,0-2.609-2.592H33.609A2.6,2.6,0,0,0,31,238.805v5.875Z" transform="translate(-3.696 -114.353)"/><g transform="translate(33.44 136.216)"><path class="b" d="M63.39,321.025H55.3a.78.78,0,0,1-.783-.777V292.392a.78.78,0,0,1,.783-.777H63.39a.78.78,0,0,1,.783.777v27.856A.78.78,0,0,1,63.39,321.025Z" transform="translate(-54.52 -291.615)"/><path class="b" d="M119.346,301.2H106.3a.78.78,0,0,1-.783-.777v-8.033a.78.78,0,0,1,.783-.777h13.043a.78.78,0,0,1,.783.777v8.033A.78.78,0,0,1,119.346,301.2Z" transform="translate(-92.216 -291.615)"/><path class="b" d="M119.346,358.772H106.3a.78.78,0,0,1-.783-.777V343.34a.78.78,0,0,1,.783-.777h13.043a.78.78,0,0,1,.783.777v14.654A.78.78,0,0,1,119.346,358.772Z" transform="translate(-92.216 -329.361)"/></g><g transform="translate(26 96.143)"><path class="d" d="M145.334,156.025a1.3,1.3,0,0,0-1.3,1.3v.03a1.3,1.3,0,0,0,2.609,0v-.03A1.3,1.3,0,0,0,145.334,156.025Z" transform="translate(-113.24 -151.087)"/><path class="d" d="M160.672,156.025a1.3,1.3,0,0,0-1.3,1.3v.03a1.3,1.3,0,0,0,2.609,0v-.03A1.3,1.3,0,0,0,160.672,156.025Z" transform="translate(-124.576 -151.087)"/><path class="d" d="M176.009,156.025a1.3,1.3,0,0,0-1.3,1.3v.03a1.3,1.3,0,0,0,2.609,0v-.03A1.3,1.3,0,0,0,176.009,156.025Z" transform="translate(-135.912 -151.087)"/><path class="d" d="M142.086,169.164H130.6V142.15a5.207,5.207,0,0,0-5.218-5.183H54.124a5.207,5.207,0,0,0-5.218,5.183v13.4a1.3,1.3,0,0,0,2.609,0v-6.083H128v19.7h-5.219a3.905,3.905,0,0,0-3.914,3.888v6.169a1.3,1.3,0,0,0,2.609,0v-6.169a1.3,1.3,0,0,1,1.305-1.3h2.532l.915,2.79a2.6,2.6,0,0,0,2.481,1.789h7.454a2.6,2.6,0,0,0,2.481-1.789l.915-2.79h2.532a1.3,1.3,0,0,1,1.305,1.3v36.027a1.3,1.3,0,0,1-1.305,1.3H122.777a1.3,1.3,0,0,1-1.305-1.3V186.357a1.3,1.3,0,0,0-1.3-1.3H68.793V165.276a3.905,3.905,0,0,0-3.914-3.887H29.914A3.905,3.905,0,0,0,26,165.276v43.8a3.905,3.905,0,0,0,3.914,3.887H64.879a3.905,3.905,0,0,0,3.914-3.887V198.016H80.137L77,210.376H74.034a1.3,1.3,0,1,0,0,2.591h31.443a1.3,1.3,0,1,0,0-2.591h-2.963l-3.14-12.36h19.49v11.064a3.905,3.905,0,0,0,3.914,3.887h19.309A3.905,3.905,0,0,0,146,209.079V173.052A3.906,3.906,0,0,0,142.086,169.164Zm-90.571-22.29V142.15a2.6,2.6,0,0,1,2.61-2.592h71.262A2.6,2.6,0,0,1,128,142.15v4.723Zm84.643,26.87H128.7l-.652-1.988h8.758ZM29.914,163.98H64.879a1.3,1.3,0,0,1,1.305,1.3v4.579H28.609v-4.579a1.3,1.3,0,0,1,1.305-1.3Zm36.27,45.1a1.3,1.3,0,0,1-1.305,1.3H29.914a1.3,1.3,0,0,1-1.305-1.3V172.447H66.184Zm33.639,1.3H79.687l3.14-12.36H96.683Zm-31.03-14.951v-7.772h50.07v7.772Z" transform="translate(-26 -136.967)"/><path class="d" d="M53.478,250.115a1.3,1.3,0,0,0,1.3-1.3v-.03a1.3,1.3,0,0,0-2.609,0v.03A1.3,1.3,0,0,0,53.478,250.115Z" transform="translate(-45.346 -218.854)"/><path class="d" d="M68.815,250.115a1.3,1.3,0,0,0,1.3-1.3v-.03a1.3,1.3,0,0,0-2.609,0v.03A1.3,1.3,0,0,0,68.815,250.115Z" transform="translate(-56.682 -218.854)"/><path class="d" d="M84.152,250.115a1.3,1.3,0,0,0,1.3-1.3v-.03a1.3,1.3,0,0,0-2.609,0v.03A1.3,1.3,0,0,0,84.152,250.115Z" transform="translate(-68.018 -218.854)"/><path class="c" d="M261.789,204.5l.6-.6.6.6a1.311,1.311,0,0,0,1.845,0,1.289,1.289,0,0,0,0-1.832l-1.522-1.511a1.31,1.31,0,0,0-1.844,0l-1.522,1.511a1.29,1.29,0,0,0,0,1.832A1.31,1.31,0,0,0,261.789,204.5Z" transform="translate(-198.633 -184.245)"/></g><path class="c" d="M411.435,321.991h-3.652a.78.78,0,0,1-.783-.777V310.892a.78.78,0,0,1,.783-.777h3.652a.78.78,0,0,1,.783.777v10.322A.78.78,0,0,1,411.435,321.991Z" transform="translate(-281.609 -170.098)"/><path class="d" d="M411.435,321.991h-3.652a.78.78,0,0,1-.783-.777V310.892a.78.78,0,0,1,.783-.777h3.652a.78.78,0,0,1,.783.777v10.322A.78.78,0,0,1,411.435,321.991Z" transform="translate(-281.609 -154.205)"/><path class="c" d="M411.435,321.991h-3.652a.78.78,0,0,1-.783-.777V310.892a.78.78,0,0,1,.783-.777h3.652a.78.78,0,0,1,.783.777v10.322A.78.78,0,0,1,411.435,321.991Z" transform="translate(-273.087 -170.098)"/><path class="d" d="M411.435,321.991h-3.652a.78.78,0,0,1-.783-.777V310.892a.78.78,0,0,1,.783-.777h3.652a.78.78,0,0,1,.783.777v10.322A.78.78,0,0,1,411.435,321.991Z" transform="translate(-273.087 -154.219)"/><path class="c" d="M359.2,230.606a1.449,1.449,0,1,1-1.458,1.448A1.454,1.454,0,0,1,359.2,230.606Z" transform="translate(-245.202 -110.199)"/><path class="c" d="M359.2,213.7a1.449,1.449,0,1,1-1.458,1.448A1.454,1.454,0,0,1,359.2,213.7Z" transform="translate(-245.202 -97.67)"/><path class="c" d="M359.2,196.786a1.449,1.449,0,1,1-1.458,1.449A1.454,1.454,0,0,1,359.2,196.786Z" transform="translate(-245.202 -85.142)"/></g></g></svg>