<svg xmlns="http://www.w3.org/2000/svg" xmlns:xlink="http://www.w3.org/1999/xlink" width="217" height="65" viewBox="0 0 217 65"><defs><style>.a{fill:#fff;stroke:#e0e0e0;}.b{fill:url(#a);}.c{fill:url(#b);}.d{fill:#ffd200;}.e{fill:url(#c);}.f,.i{fill-rule:evenodd;}.f{fill:url(#d);}.g{fill:#00f076;}.h{fill:url(#e);}</style><linearGradient id="a" x1="0.5" x2="0.5" y2="1" gradientUnits="objectBoundingBox"><stop offset="0" stop-color="#fff"/><stop offset="1"/></linearGradient><linearGradient id="b" x1="0.483" y1="0.036" x2="0.367" y2="1" gradientUnits="objectBoundingBox"><stop offset="0" stop-color="#00c3ff"/><stop offset="1" stop-color="#06e1ff"/></linearGradient><linearGradient id="c" y1="0.5" x2="1" y2="0.5" gradientUnits="objectBoundingBox"><stop offset="0" stop-color="#febd00"/><stop offset="1" stop-color="#ffdb00"/></linearGradient><linearGradient id="d" x1="0.862" y1="0.309" x2="-0.501" y2="1.36" gradientUnits="objectBoundingBox"><stop offset="0" stop-color="#ff3a44"/><stop offset="1" stop-color="#c31162"/></linearGradient><linearGradient id="e" x1="0.088" y1="0.244" x2="0.758" y2="0.797" gradientUnits="objectBoundingBox"><stop offset="0" stop-color="#04e975"/><stop offset="1" stop-color="#00f076"/></linearGradient></defs><g transform="translate(0.258 0.911)"><rect class="a" width="216" height="64" rx="4" transform="translate(0.241 -0.411)"/><g transform="translate(15.058 11.278)"><path class="b" d="M.748.446A3.325,3.325,0,0,0,0,2.756V39.121a3.327,3.327,0,0,0,.748,2.31l.118.12L20.878,21.178V20.7L.866.324.748.447Z" transform="translate(0 -0.324)"/><path class="c" d="M.748.446A3.325,3.325,0,0,0,0,2.756V39.121a3.327,3.327,0,0,0,.748,2.31l.118.12L20.878,21.178V20.7L.866.324.748.447Z" transform="translate(0 -0.324)"/></g><g transform="translate(35.937 24.86)"><path class="d" d="M12.926,15.375v.482L19.6,22.648l.153-.084,7.9-4.575c2.258-1.3,2.258-3.442,0-4.747l-7.9-4.571L19.6,8.584l-6.671,6.791Z" transform="translate(-12.926 -8.584)"/><path class="e" d="M12.926,15.375v.482L19.6,22.648l.153-.084,7.9-4.575c2.258-1.3,2.258-3.442,0-4.747l-7.9-4.571L19.6,8.584l-6.671,6.791Z" transform="translate(-12.926 -8.584)"/></g><path class="f" d="M.463,33.353a2.044,2.044,0,0,0,1.515.654h.068a3.706,3.706,0,0,0,1.774-.553l23.6-13.648-6.823-6.946Z" transform="translate(15.343 19.032)"/><g transform="translate(15.806 10.745)"><path class="g" d="M.463.654l20.13,20.492L27.416,14.2,3.819.553A3.675,3.675,0,0,0,2.009,0,2.047,2.047,0,0,0,.463.654" transform="translate(-0.463)"/><path class="h" d="M.463.654l20.13,20.492L27.416,14.2,3.819.553A3.675,3.675,0,0,0,2.009,0,2.047,2.047,0,0,0,.463.654" transform="translate(-0.463)"/></g><path class="i" d="M146.435,38.58h3.012V18.025h-3.012ZM173.58,25.428l-3.453,8.912h-.1l-3.584-8.912h-3.247l5.377,12.456L165.5,44.814h3.143l8.288-19.385H173.58ZM156.486,36.245c-.985,0-2.361-.5-2.361-1.746,0-1.585,1.714-2.2,3.195-2.2a5.312,5.312,0,0,1,2.752.687,3.674,3.674,0,0,1-3.586,3.256Zm.365-11.267a5.644,5.644,0,0,0-5.377,3.147l2.675,1.138a2.846,2.846,0,0,1,2.754-1.508,2.916,2.916,0,0,1,3.169,2.644v.214a6.553,6.553,0,0,0-3.143-.794c-2.883,0-5.82,1.613-5.82,4.627,0,2.751,2.365,4.524,5.015,4.524a4.231,4.231,0,0,0,3.844-2.011h.1v1.587h2.911V30.664c0-3.649-2.676-5.686-6.131-5.686Zm-18.625,2.953h-4.288V20.885h4.288a3.523,3.523,0,1,1,0,7.046Zm-.079-9.909h-7.222V38.58h3.012V30.792h4.209a6.389,6.389,0,1,0,0-12.77ZM98.766,36.248a3.982,3.982,0,0,1-3.825-4.21,4.015,4.015,0,0,1,3.825-4.267c2.056,0,3.67,1.8,3.67,4.265,0,2.437-1.614,4.211-3.67,4.211Zm3.461-9.669h-.1a4.724,4.724,0,0,0-3.616-1.562,7.006,7.006,0,0,0,0,13.987,4.639,4.639,0,0,0,3.616-1.59h.1V38.42c0,2.677-1.405,4.106-3.67,4.106a3.8,3.8,0,0,1-3.46-2.49L92.47,41.15a6.55,6.55,0,0,0,6.088,4.132c3.541,0,6.532-2.12,6.532-7.285V25.44h-2.862v1.14Zm4.944,12h3.017V18.025h-3.017V38.58Zm7.467-6.781a3.806,3.806,0,0,1,3.592-4.078,2.656,2.656,0,0,1,2.55,1.482l-6.143,2.6Zm9.368-2.332c-.572-1.562-2.316-4.451-5.881-4.451-3.539,0-6.479,2.835-6.479,7A6.825,6.825,0,0,0,124.19,35.9l-2.342-1.59a3.9,3.9,0,0,1-3.384,1.934,3.487,3.487,0,0,1-3.329-2.12l9.184-3.868Zm-73.182-2.3v2.965H57.8a6.236,6.236,0,0,1-1.588,3.734,7.071,7.071,0,0,1-5.387,2.174,7.724,7.724,0,0,1-7.65-7.893,7.726,7.726,0,0,1,7.65-7.9,7.356,7.356,0,0,1,5.256,2.121l2.056-2.093a10.08,10.08,0,0,0-7.312-2.993,10.861,10.861,0,0,0,0,21.722,9.666,9.666,0,0,0,7.441-3.047,9.9,9.9,0,0,0,2.525-6.939,9.915,9.915,0,0,0-.155-1.855H50.825Zm17.9,9.083a4.015,4.015,0,0,1-3.878-4.238,3.893,3.893,0,1,1,7.755,0A4.014,4.014,0,0,1,68.72,36.248Zm0-11.231a6.994,6.994,0,1,0,6.9,6.993,6.832,6.832,0,0,0-6.9-6.993ZM83.763,36.248a4.014,4.014,0,0,1-3.877-4.238,3.892,3.892,0,1,1,7.753,0A4.014,4.014,0,0,1,83.763,36.248Zm0-11.231a6.994,6.994,0,1,0,6.9,6.993,6.832,6.832,0,0,0-6.9-6.993Z" transform="translate(23.515 10.371)"/><path d="M144.437,12.828a3.568,3.568,0,0,1,.648,1.013,2.582,2.582,0,0,1,.205.977,2.027,2.027,0,0,1-.622,1.5,2.493,2.493,0,0,1-1.83.615h-4.3l-.089-1.809h4.122q.8,0,.8-.615a.777.777,0,0,0-.183-.48l-2.856-3.3,1.3-1.23ZM132.817,19.1h.213a2.873,2.873,0,0,0,1.155-.209,2.321,2.321,0,0,0,.791-.543,2.047,2.047,0,0,0,.452-.778,2.951,2.951,0,0,0,.142-.913v-4.54h1.635v4.54a4.539,4.539,0,0,1-.3,1.664,4.315,4.315,0,0,1-.817,1.348,3.812,3.812,0,0,1-1.234.9,3.6,3.6,0,0,1-1.538.334h-.409Zm-1.777-2.171H127.2c-.048,0-.089-.049-.124-.145a2.109,2.109,0,0,1-.052-.543l0-.181a3.33,3.33,0,0,1,.053-.788c.036-.1.078-.153.124-.153h3.713A.951.951,0,0,0,132,14.058V12.122h1.635v2.062a2.839,2.839,0,0,1-.675,2.052,2.547,2.547,0,0,1-1.919.7Zm.533,3.473h-1.652V18.8h1.652Zm-2.328,0h-1.67V18.8h1.67ZM127.2,16.934h-.693a2.951,2.951,0,0,1-.871-.127,1.792,1.792,0,0,1-.719-.424,2.128,2.128,0,0,1-.5-.778,3.343,3.343,0,0,1-.186-1.2V6.9h1.652V14a1.311,1.311,0,0,0,.231.822.859.859,0,0,0,.728.3h.355Zm-11.8-.687,0-.181a3.331,3.331,0,0,1,.053-.788c.036-.1.078-.153.124-.153h1.457c.178,0,.331,0,.462.008l.189.012.176.016a3.576,3.576,0,0,1,.685.127,4.426,4.426,0,0,1-.908-.516,1.865,1.865,0,0,1-.746-1.265,5.812,5.812,0,0,1-.053-.824,2.648,2.648,0,0,1,1.51-2.4,2.63,2.63,0,0,1,1.173-.243,3.761,3.761,0,0,1,1.137.163,2.118,2.118,0,0,1,.888.543,2.538,2.538,0,0,1,.578,1,4.987,4.987,0,0,1,.2,1.529v.832a2.813,2.813,0,0,1-.746,2.072,3.222,3.222,0,0,1-2.363.75h-3.642c-.048,0-.089-.049-.124-.145a2.108,2.108,0,0,1-.052-.543Zm4.085-4.4a1.006,1.006,0,0,0-.863.37,1.3,1.3,0,0,0-.275.788,1.7,1.7,0,0,0,.053.424.973.973,0,0,0,.267.426,3,3,0,0,0,.64.46,10.776,10.776,0,0,0,1.155.553,1.06,1.06,0,0,0,.213-.444,2.252,2.252,0,0,0,.071-.569v-.434a2.169,2.169,0,0,0-.267-1.131,1.062,1.062,0,0,0-.995-.442Zm.942-3.165h-1.812V7.022h1.812V8.686Zm-9.1,6.439a.951.951,0,0,0,1.084-1.067V12.122h1.652v1.935a.923.923,0,0,0,.355.822,1.438,1.438,0,0,0,.835.245h.32v1.809h-.391a3.015,3.015,0,0,1-1.1-.2,1.828,1.828,0,0,1-.888-.832,1.978,1.978,0,0,1-.863.832,2.566,2.566,0,0,1-1,.2H105.9a2.83,2.83,0,0,1-1.147-.209,2.1,2.1,0,0,1-.762-.551,2.242,2.242,0,0,1-.436-.806,3.267,3.267,0,0,1-.142-.967V12.05h1.635v1.917a1.361,1.361,0,0,0,.239.85,1.194,1.194,0,0,0,.969.307h5.081Zm-.6-4.341h-1.688V9.174h1.688Zm-2.31,0h-1.688V9.174h1.688ZM98.082,6.895h1.652V16.934H98.082V6.9Zm-1.635,9.768a4.539,4.539,0,0,1-.3,1.664,4.315,4.315,0,0,1-.817,1.348,3.811,3.811,0,0,1-1.234.9,3.6,3.6,0,0,1-1.538.334H91.544L91.455,19.1h.693a3.189,3.189,0,0,0,1.218-.209,2.349,2.349,0,0,0,.825-.543,2.043,2.043,0,0,0,.47-.778,2.78,2.78,0,0,0,.152-.913v-4.54h1.635v4.54Zm.018-6.457H94.653V8.541h1.812v1.664Z" transform="translate(55.171 3.678)"/></g></svg>