<svg xmlns="http://www.w3.org/2000/svg" width="120" height="120" viewBox="0 0 120 120"><defs><style>.a{fill:#fff;opacity:0;}.b{fill:#00bfff;}.c{fill:#0044fe;}</style></defs><g transform="translate(3267 12820)"><rect class="a" width="120" height="120" transform="translate(-3267 -12820)"/><g transform="translate(-3281.405 -12854.001)"><path class="b" d="M263.22,219.592l-7.485-2.239a32.219,32.219,0,0,0-3.466-8.785l3.787-7.145a1.619,1.619,0,0,0-.248-1.859l-5.116-5.374a1.432,1.432,0,0,0-1.77-.26l-6.8,3.978a29.055,29.055,0,0,0-8.363-3.641l-2.131-7.862a1.5,1.5,0,0,0-1.427-1.132h-7.234a1.5,1.5,0,0,0-1.427,1.132l-2.131,7.862a29.055,29.055,0,0,0-8.363,3.641l-6.8-3.978a1.432,1.432,0,0,0-1.77.26l-5.116,5.374a1.619,1.619,0,0,0-.248,1.859l3.787,7.145a32.217,32.217,0,0,0-3.466,8.785l-7.485,2.239a1.549,1.549,0,0,0-1.077,1.5v7.6a1.549,1.549,0,0,0,1.077,1.5l7.485,2.239a32.22,32.22,0,0,0,3.466,8.785l-3.787,7.145a1.619,1.619,0,0,0,.248,1.859l5.116,5.374a1.432,1.432,0,0,0,1.77.26l6.8-3.978a29.053,29.053,0,0,0,8.363,3.641l2.131,7.862a1.5,1.5,0,0,0,1.427,1.132H230.2a1.5,1.5,0,0,0,1.427-1.132l2.131-7.862a29.056,29.056,0,0,0,8.363-3.641l6.8,3.978a1.432,1.432,0,0,0,1.77-.26l5.116-5.374a1.619,1.619,0,0,0,.248-1.859l-3.787-7.145a32.22,32.22,0,0,0,3.466-8.785l7.485-2.239a1.549,1.549,0,0,0,1.077-1.5v-7.6A1.548,1.548,0,0,0,263.22,219.592Zm-36.638,24.8c-10.253,0-18.566-8.732-18.566-19.5s8.313-19.5,18.566-19.5,18.566,8.732,18.566,19.5-8.313,19.5-18.566,19.5Z" transform="translate(-131.134 -111.81)"/><path class="b" d="M59.555,218.256l-4.042-1.209a17.4,17.4,0,0,0-1.872-4.744l2.045-3.858a.875.875,0,0,0-.134-1l-2.762-2.9a.773.773,0,0,0-.956-.14l-3.673,2.148a15.691,15.691,0,0,0-4.516-1.966L42.5,200.336a.807.807,0,0,0-.771-.611H37.818a.808.808,0,0,0-.771.611L35.9,204.581a15.691,15.691,0,0,0-4.516,1.966L27.708,204.4a.774.774,0,0,0-.956.14l-2.762,2.9a.874.874,0,0,0-.134,1L25.9,212.3a17.4,17.4,0,0,0-1.872,4.744l-4.042,1.209a.836.836,0,0,0-.582.809v4.1a.836.836,0,0,0,.582.809l4.042,1.209A17.4,17.4,0,0,0,25.9,229.93l-2.045,3.858a.875.875,0,0,0,.134,1l2.762,2.9a.773.773,0,0,0,.956.14l3.673-2.148a15.691,15.691,0,0,0,4.516,1.966l1.151,4.245a.807.807,0,0,0,.771.611h3.906a.808.808,0,0,0,.771-.611l1.151-4.245a15.691,15.691,0,0,0,4.516-1.966l3.673,2.148a.774.774,0,0,0,.956-.14l2.762-2.9a.874.874,0,0,0,.134-1l-2.045-3.858a17.4,17.4,0,0,0,1.872-4.744l4.042-1.209a.836.836,0,0,0,.582-.809v-4.1a.836.836,0,0,0-.582-.809Zm-19.784,9.59a6.737,6.737,0,1,1,6.406-6.729A6.573,6.573,0,0,1,39.771,227.846Z" transform="translate(-3.759 -122.492)"/><path class="b" d="M159.64,58.956l-4.353-1.3a18.736,18.736,0,0,0-2.015-5.108l2.2-4.155a.942.942,0,0,0-.144-1.081l-2.975-3.125a.833.833,0,0,0-1.029-.151l-3.955,2.313a16.9,16.9,0,0,0-4.863-2.117l-1.24-4.572a.87.87,0,0,0-.83-.658h-4.206a.87.87,0,0,0-.83.658l-1.24,4.572a16.9,16.9,0,0,0-4.863,2.117l-3.955-2.313a.833.833,0,0,0-1.029.151L121.34,47.31a.942.942,0,0,0-.144,1.081l2.2,4.155a18.736,18.736,0,0,0-2.015,5.108l-4.353,1.3a.9.9,0,0,0-.626.872v4.418a.9.9,0,0,0,.626.872l4.353,1.3a18.736,18.736,0,0,0,2.015,5.108l-2.2,4.155a.942.942,0,0,0,.144,1.081l2.975,3.125a.833.833,0,0,0,1.029.151l3.955-2.313a16.889,16.889,0,0,0,4.863,2.117l1.24,4.572a.87.87,0,0,0,.83.658h4.206a.87.87,0,0,0,.83-.658l1.24-4.572a16.9,16.9,0,0,0,4.863-2.117l3.955,2.313a.833.833,0,0,0,1.029-.151l2.975-3.125a.942.942,0,0,0,.144-1.081l-2.2-4.155a18.736,18.736,0,0,0,2.015-5.108l4.353-1.3a.9.9,0,0,0,.626-.872V59.828a.9.9,0,0,0-.627-.872ZM138.335,71a8.972,8.972,0,1,1,8.531-8.961A8.755,8.755,0,0,1,138.335,71Z" transform="translate(-76.668 -3.695)"/><g transform="translate(14.405 34.001)"><path class="c" d="M226.442,262.115h-7.233a2.76,2.76,0,0,1-2.622-2.079l-1.936-7.143a30.222,30.222,0,0,1-7.382-3.213l-6.18,3.614a2.64,2.64,0,0,1-3.252-.477l-5.116-5.374a2.986,2.986,0,0,1-.455-3.414l3.441-6.493a33.514,33.514,0,0,1-3.059-7.754l-6.8-2.034a2.858,2.858,0,0,1-1.979-2.754v-7.6a2.859,2.859,0,0,1,1.979-2.754l6.8-2.034a33.524,33.524,0,0,1,3.059-7.754l-3.441-6.492a2.986,2.986,0,0,1,.454-3.416l5.116-5.374a2.64,2.64,0,0,1,3.251-.478l6.181,3.615a30.222,30.222,0,0,1,7.382-3.213l1.936-7.143a2.76,2.76,0,0,1,2.622-2.079h7.233a2.76,2.76,0,0,1,2.622,2.079L231,189.5a30.224,30.224,0,0,1,7.382,3.213l6.18-3.614a2.64,2.64,0,0,1,3.252.477l5.116,5.374a2.986,2.986,0,0,1,.455,3.415l-3.441,6.493A33.514,33.514,0,0,1,253,212.607l6.8,2.034h0a2.859,2.859,0,0,1,1.979,2.754v7.6a2.858,2.858,0,0,1-1.979,2.754l-6.8,2.034a33.535,33.535,0,0,1-3.059,7.754l3.441,6.492a2.986,2.986,0,0,1-.454,3.416l-5.116,5.374a2.64,2.64,0,0,1-3.251.478l-6.181-3.615A30.222,30.222,0,0,1,231,252.893l-1.936,7.143a2.761,2.761,0,0,1-2.622,2.079Zm-19.155-15.243a1.2,1.2,0,0,1,.644.189,27.813,27.813,0,0,0,8.015,3.489,1.271,1.271,0,0,1,.9.91l2.132,7.862a.242.242,0,0,0,.233.184h7.233a.243.243,0,0,0,.233-.185l2.131-7.862a1.271,1.271,0,0,1,.9-.91,27.811,27.811,0,0,0,8.015-3.489,1.19,1.19,0,0,1,1.248-.024l6.8,3.978a.234.234,0,0,0,.288-.043l5.116-5.374a.265.265,0,0,0,.04-.3l-3.786-7.144a1.362,1.362,0,0,1,.023-1.311,30.848,30.848,0,0,0,3.322-8.419,1.277,1.277,0,0,1,.866-.944l7.485-2.239a.251.251,0,0,0,.176-.245v-7.6a.251.251,0,0,0-.176-.245l-7.485-2.239a1.278,1.278,0,0,1-.866-.944,30.855,30.855,0,0,0-3.322-8.419,1.361,1.361,0,0,1-.023-1.311l3.787-7.145a.264.264,0,0,0-.041-.3l-5.116-5.374a.234.234,0,0,0-.289-.042l-6.8,3.977a1.19,1.19,0,0,1-1.248-.025,27.825,27.825,0,0,0-8.015-3.489,1.271,1.271,0,0,1-.9-.91l-2.131-7.862a.243.243,0,0,0-.233-.184h-7.233a.242.242,0,0,0-.233.185l-2.132,7.862a1.272,1.272,0,0,1-.9.91,27.81,27.81,0,0,0-8.015,3.489,1.19,1.19,0,0,1-1.248.025l-6.8-3.978a.234.234,0,0,0-.288.043l-5.116,5.374a.265.265,0,0,0-.04.3l3.786,7.144a1.362,1.362,0,0,1-.023,1.311,30.842,30.842,0,0,0-3.322,8.419,1.278,1.278,0,0,1-.866.944l-7.485,2.239a.251.251,0,0,0-.176.245v7.6a.25.25,0,0,0,.176.245l7.485,2.239a1.278,1.278,0,0,1,.866.944,30.845,30.845,0,0,0,3.322,8.419,1.361,1.361,0,0,1,.023,1.311l-3.787,7.145a.264.264,0,0,0,.041.3l5.116,5.374a.234.234,0,0,0,.289.042l6.8-3.977a1.193,1.193,0,0,1,.6-.165ZM222.825,242c-10.922,0-19.807-9.333-19.807-20.806a21.464,21.464,0,0,1,3.295-11.488,1.206,1.206,0,0,1,1.721-.365,1.345,1.345,0,0,1,.348,1.808,18.771,18.771,0,0,0-2.88,10.045c0,10.034,7.771,18.2,17.324,18.2s17.324-8.163,17.324-18.2S232.377,203,222.825,203a16.647,16.647,0,0,0-10,3.346,1.2,1.2,0,0,1-1.731-.31,1.347,1.347,0,0,1,.295-1.819,19.036,19.036,0,0,1,11.44-3.827c10.922,0,19.807,9.333,19.807,20.806S233.747,242,222.825,242Z" transform="translate(-141.782 -142.115)"/><path class="c" d="M37.965,240.115H34.059a2.069,2.069,0,0,1-1.965-1.558l-.958-3.534a16.888,16.888,0,0,1-3.526-1.535l-3.058,1.788a1.98,1.98,0,0,1-2.438-.358l-2.762-2.9a2.237,2.237,0,0,1-.341-2.559l1.7-3.213a18.714,18.714,0,0,1-1.461-3.7l-3.365-1.006a2.142,2.142,0,0,1-1.483-2.064v-4.1a2.143,2.143,0,0,1,1.483-2.064l3.365-1.006a18.717,18.717,0,0,1,1.461-3.7l-1.7-3.212a2.238,2.238,0,0,1,.341-2.561l2.762-2.9a1.98,1.98,0,0,1,2.437-.358l3.059,1.789a16.868,16.868,0,0,1,3.526-1.535l.958-3.534a2.069,2.069,0,0,1,1.965-1.558h3.906a2.069,2.069,0,0,1,1.965,1.558l.958,3.534a16.882,16.882,0,0,1,3.526,1.535l3.058-1.788a1.98,1.98,0,0,1,2.438.357l2.763,2.9a2.238,2.238,0,0,1,.341,2.559l-1.7,3.213a18.714,18.714,0,0,1,1.461,3.7l3.365,1.006a2.142,2.142,0,0,1,1.483,2.064v4.1a2.143,2.143,0,0,1-1.483,2.064l-3.365,1.006a18.736,18.736,0,0,1-1.461,3.7l1.7,3.212a2.238,2.238,0,0,1-.341,2.561l-2.762,2.9a1.978,1.978,0,0,1-2.436.359l-3.059-1.789a16.879,16.879,0,0,1-3.526,1.535l-.958,3.534a2.069,2.069,0,0,1-1.965,1.559Zm-3.574-2.609h3.241l1.06-3.909a1.272,1.272,0,0,1,.9-.91,14.469,14.469,0,0,0,4.168-1.814,1.19,1.19,0,0,1,1.248-.024l3.382,1.978,2.292-2.408L48.8,226.866a1.362,1.362,0,0,1,.023-1.311,16.046,16.046,0,0,0,1.727-4.378,1.277,1.277,0,0,1,.866-.944l3.722-1.113v-3.4L51.415,214.6a1.278,1.278,0,0,1-.866-.944,16.042,16.042,0,0,0-1.727-4.378,1.361,1.361,0,0,1-.023-1.311l1.883-3.553-2.292-2.408-3.382,1.978a1.19,1.19,0,0,1-1.248-.024,14.463,14.463,0,0,0-4.168-1.814,1.271,1.271,0,0,1-.9-.91l-1.06-3.909H34.392l-1.06,3.909a1.272,1.272,0,0,1-.9.91,14.463,14.463,0,0,0-4.168,1.814,1.19,1.19,0,0,1-1.248.024l-3.382-1.978-2.292,2.408,1.883,3.553a1.361,1.361,0,0,1-.023,1.311,16.049,16.049,0,0,0-1.727,4.378,1.277,1.277,0,0,1-.866.944l-3.722,1.113v3.4l3.722,1.113a1.278,1.278,0,0,1,.866.944,16.039,16.039,0,0,0,1.727,4.378,1.361,1.361,0,0,1,.023,1.311l-1.883,3.552,2.292,2.408,3.382-1.978a1.191,1.191,0,0,1,1.248.024,14.469,14.469,0,0,0,4.168,1.814,1.271,1.271,0,0,1,.9.91Zm21.064-21.694h0Zm0,0h0Z" transform="translate(-14.405 -152.794)"/><path class="c" d="M78.263,267a8.043,8.043,0,1,1,7.647-8.033A7.856,7.856,0,0,1,78.263,267Zm0-13.458a5.431,5.431,0,1,0,5.164,5.424A5.305,5.305,0,0,0,78.263,253.543Z" transform="translate(-56.656 -194.343)"/><path class="c" d="M136.68,82.684h-4.206a2.131,2.131,0,0,1-2.024-1.605l-1.046-3.86a18.07,18.07,0,0,1-3.874-1.687l-3.339,1.953a2.039,2.039,0,0,1-2.511-.369L116.7,73.991a2.3,2.3,0,0,1-.352-2.636l1.86-3.509a20.046,20.046,0,0,1-1.606-4.07l-3.674-1.1a2.207,2.207,0,0,1-1.528-2.126V56.133a2.207,2.207,0,0,1,1.528-2.126l3.674-1.1a20.046,20.046,0,0,1,1.606-4.07l-1.859-3.507a2.305,2.305,0,0,1,.351-2.638l2.975-3.125a2.038,2.038,0,0,1,2.51-.369l3.341,1.953a18.071,18.071,0,0,1,3.874-1.687l1.046-3.86A2.131,2.131,0,0,1,132.474,34h4.206a2.131,2.131,0,0,1,2.024,1.605l1.046,3.86a18.071,18.071,0,0,1,3.874,1.687l3.339-1.953a2.039,2.039,0,0,1,2.511.369l2.975,3.125a2.3,2.3,0,0,1,.352,2.636l-1.86,3.509a20.047,20.047,0,0,1,1.606,4.07l3.674,1.1a2.207,2.207,0,0,1,1.528,2.126v4.418a2.207,2.207,0,0,1-1.528,2.126l-3.674,1.1a20.048,20.048,0,0,1-1.606,4.07l1.859,3.507a2.305,2.305,0,0,1-.351,2.638l-2.975,3.125a2.038,2.038,0,0,1-2.51.369l-3.341-1.953a18.071,18.071,0,0,1-3.874,1.687l-1.046,3.86a2.131,2.131,0,0,1-2.024,1.605Zm-3.92-2.609h3.635l1.161-4.283a1.271,1.271,0,0,1,.9-.91,15.675,15.675,0,0,0,4.515-1.965,1.19,1.19,0,0,1,1.248-.025l3.7,2.167,2.57-2.7-2.063-3.892a1.361,1.361,0,0,1,.023-1.311,17.38,17.38,0,0,0,1.871-4.743,1.278,1.278,0,0,1,.866-.944l4.077-1.22V56.434l-4.077-1.22a1.278,1.278,0,0,1-.866-.944,17.383,17.383,0,0,0-1.871-4.743,1.361,1.361,0,0,1-.023-1.311l2.063-3.892-2.57-2.7-3.7,2.167a1.19,1.19,0,0,1-1.248-.025,15.672,15.672,0,0,0-4.515-1.965,1.272,1.272,0,0,1-.9-.91l-1.161-4.283H132.76L131.6,40.892a1.271,1.271,0,0,1-.9.91,15.675,15.675,0,0,0-4.515,1.965,1.191,1.191,0,0,1-1.248.025l-3.7-2.167-2.57,2.7,2.063,3.892a1.361,1.361,0,0,1-.023,1.311,17.379,17.379,0,0,0-1.871,4.743,1.278,1.278,0,0,1-.866.944l-4.077,1.22v3.818l4.077,1.22a1.278,1.278,0,0,1,.866.944,17.383,17.383,0,0,0,1.871,4.743,1.361,1.361,0,0,1,.023,1.311l-2.063,3.892,2.57,2.7,3.7-2.167a1.19,1.19,0,0,1,1.248.025,15.672,15.672,0,0,0,4.515,1.965,1.272,1.272,0,0,1,.9.91Zm1.817-11.467a9.31,9.31,0,0,1-3.782-.8,1.329,1.329,0,0,1-.664-1.708,1.221,1.221,0,0,1,1.626-.7,6.944,6.944,0,0,0,2.82.594,7.666,7.666,0,1,0-7.289-7.657,7.978,7.978,0,0,0,.44,2.626,1.323,1.323,0,0,1-.74,1.673,1.226,1.226,0,0,1-1.592-.778,10.689,10.689,0,0,1-.591-3.521,9.785,9.785,0,1,1,9.773,10.266Z" transform="translate(-87.314 -34.001)"/></g></g></g></svg>